<?xml version="1.0" encoding="UTF-8"?>
<!DOCTYPE svg PUBLIC "-//W3C//DTD SVG 1.1//EN" "http://www.w3.org/Graphics/SVG/1.1/DTD/svg11.dtd">
<!-- Creator: CorelDRAW X7 -->
<svg xmlns="http://www.w3.org/2000/svg" xml:space="preserve" width="172.526mm" height="56.2007mm" version="1.1" style="shape-rendering:geometricPrecision; text-rendering:geometricPrecision; image-rendering:optimizeQuality; fill-rule:evenodd; clip-rule:evenodd"
viewBox="0 0 17144 5585"
 xmlns:xlink="http://www.w3.org/1999/xlink">
 <defs>
  <style type="text/css">
   <![CDATA[
    .fil1 {fill:#1B1918}
    .fil0 {fill:url(#id0)}
   ]]>
  </style>
  <linearGradient id="id0" gradientUnits="userSpaceOnUse" x1="-0" y1="2792.27" x2="17143.5" y2="2792.27">
   <stop offset="0" style="stop-opacity:1; stop-color:#E52A15"/>
   <stop offset="1" style="stop-opacity:1; stop-color:#FFDB00"/>
  </linearGradient>
 </defs>
 <g id="Слой_x0020_1">
  <metadata id="CorelCorpID_0Corel-Layer"/>
  <path class="fil0" d="M4891 4c192,-35 291,169 402,146 111,-23 239,-193 332,-29 18,29 -29,52 0,105 35,46 193,5 205,17 17,12 11,24 -12,47 -23,17 -204,-6 -152,76 18,29 228,99 333,87 105,-17 227,-87 396,-58 140,29 222,99 338,128 111,35 455,47 315,175 -75,82 -274,-47 -408,-76 -181,-35 -367,6 -531,-35 -116,-23 -332,-99 -367,-6 -6,6 0,18 6,30 58,140 286,46 344,134 12,29 12,58 35,87 58,59 606,64 921,111 76,17 199,-12 245,0 53,6 117,47 181,58 245,35 490,76 735,111 157,35 653,99 717,204 -6,6 -6,12 -6,18 -5,0 -5,0 -11,0 -23,11 -338,-53 -519,-88 -333,-52 -910,-151 -1003,-163 -94,-12 -286,-18 -426,-23 -181,-30 -385,0 -583,-30 -117,-17 -298,-35 -414,-17 -99,6 -216,0 -304,12 -87,11 -245,58 -361,81 -169,35 -298,111 -332,94 -41,-24 -18,-94 -30,-140 -23,-47 -52,-100 -58,-146 -41,-117 233,-303 233,-344 18,-111 -245,-18 -303,-35 -146,-47 -193,-117 -268,-129 -41,-5 -88,65 -140,94 -70,46 -467,192 -595,52 -64,-76 0,-169 52,-215 105,-82 263,-187 467,-140 82,23 169,104 227,75 59,-23 105,-210 339,-268zm3283 472c18,-5 117,0 128,6 12,6 24,18 24,24 29,134 -263,268 -368,157 0,-134 193,-181 216,-187zm-5220 117c47,-17 339,35 298,210 -12,52 -35,88 -76,111 -187,116 -583,-193 -222,-321zm4357 29c23,-6 116,6 146,53 29,41 11,81 -12,99 -70,41 -297,-23 -292,-64 12,-70 135,-76 158,-88zm822 129c29,-6 70,11 82,23 11,12 11,23 11,41 0,11 -70,128 -169,52 -5,-12 -5,-23 -5,-41 5,-17 52,-64 81,-75zm-5511 145c17,-5 41,0 47,18 6,17 -18,64 -24,70 -11,6 -11,11 -29,6 -17,0 -35,-24 -41,-30 -11,-5 -5,-23 0,-23 6,-6 30,-35 47,-41zm-402 29c87,-29 145,24 175,94 35,93 -199,233 -298,134 -52,-76 76,-216 123,-228zm-304 193c12,0 6,0 12,0 12,0 17,0 17,12 12,23 0,70 -17,81 -41,29 -58,6 -64,0 0,-6 0,-17 0,-29 6,-12 23,-58 52,-64zm-985 23c58,-11 70,-5 81,18 6,23 -17,46 -35,58 -17,18 -99,64 -122,18 -12,-30 52,-82 76,-94zm612 41c29,-6 23,-6 64,12 35,11 47,46 53,70 23,76 -245,251 -257,81 0,-122 105,-157 140,-163zm7897 146c29,-6 52,0 70,23 64,105 -135,286 -257,181 -117,-152 151,-204 187,-204zm-6993 41c41,0 111,6 134,23 18,18 41,47 24,70 -24,23 -205,70 -251,53 -41,-24 -41,-59 -24,-88 18,-29 82,-52 117,-58zm-1627 76c12,0 47,5 70,23 128,152 -163,280 -210,175 -23,-134 82,-193 140,-198zm251 81c23,0 35,0 46,18 12,17 -23,99 -93,52 -12,-11 -6,-29 0,-35 6,-12 23,-29 47,-35zm8625 18c23,0 64,41 53,58 -6,18 -12,23 -24,23 -11,0 -64,-23 -64,-35 -6,-17 6,-46 35,-46zm3995 17c12,0 12,-6 35,6 58,41 29,99 23,117 -17,17 -29,17 -46,11 -12,0 -18,0 -41,-17 -23,-24 -23,-105 29,-117zm-3872 29c46,-41 390,-11 536,193 18,41 -6,46 -12,46 -5,6 -5,6 -17,6 -6,0 -123,-52 -152,-64 -29,-11 -239,-64 -326,-81 -94,-12 -82,-65 -29,-100zm4059 12c17,0 46,18 58,47 6,23 47,41 -12,52 -105,18 -105,-93 -46,-99zm-723 111c5,0 93,64 75,111 -6,46 -58,75 -52,93 6,12 52,6 58,23 6,18 -12,94 -12,111 0,23 41,41 6,128 -29,94 -332,76 -361,30 -64,-129 -251,-111 -204,-228 5,-12 0,-17 11,-23 12,-6 117,11 175,23 47,-17 59,-70 88,-99 52,-29 140,-64 157,-88 12,-17 12,-46 35,-75 6,-6 12,-12 24,-6zm-12772 41c17,-6 52,11 58,29 87,140 -111,157 -163,216 -53,58 -82,274 -204,215 -70,-35 -82,-128 -41,-204 70,-111 338,-245 350,-256zm6170 75c122,-11 280,146 268,216 -76,257 -426,94 -502,-70 6,-17 6,-17 18,-29 41,-6 76,-12 111,-17 35,-24 -18,-88 105,-100zm-4823 65c29,-24 41,-24 58,0 12,29 0,40 -6,52 -6,12 -58,53 -70,53 -6,0 -29,17 -41,-12 -17,-53 35,-76 59,-93zm-339 29c12,0 53,-18 41,11 -17,30 -35,65 -46,76 -6,6 -35,-6 -35,-35 0,-29 35,-46 40,-52zm9775 46c35,-11 81,12 87,35 12,18 0,76 0,82 -6,6 -6,17 -17,23 -12,0 -158,-35 -164,-40 -5,-6 -5,-12 -5,-18 0,-6 5,-29 23,-41 12,-17 41,-29 76,-41zm-933 65c35,-6 122,0 116,58 0,58 -93,140 -163,82 -6,0 0,-6 -6,-12 -6,-6 -6,-59 0,-82 0,-23 18,-41 53,-46zm3260 0c52,-24 163,58 163,64 0,5 0,5 -6,11 -35,59 -140,53 -192,6 -35,-58 17,-76 35,-81zm-2088 52c17,0 117,-17 117,41 0,146 -193,111 -234,47 0,-12 -6,-12 0,-35 12,-24 99,-47 117,-53zm-10766 6c105,-18 82,111 23,117 -34,0 -75,-41 -52,-94 6,-6 18,-23 29,-23zm2269 6c70,-24 157,35 146,76 -12,35 -76,46 -82,46 -88,35 -187,0 -198,-6 -6,0 -6,-11 0,-23 11,-12 64,-70 134,-93zm-2006 23c23,0 29,12 40,29 12,18 -17,53 -23,59 -12,0 -17,0 -29,-6 -18,-12 -18,-47 -12,-53 6,-6 0,-29 24,-29zm2904 82c11,0 23,0 35,6 12,11 17,11 29,29 6,11 12,81 -70,128 -41,6 -134,-23 -117,-76 30,-76 105,-93 123,-87zm7902 58c64,-23 82,17 128,29 100,18 199,-23 228,70 17,76 -47,117 -58,169 -18,88 64,169 -30,210 -105,47 -157,-64 -221,-93 -93,-47 -280,-41 -263,-198 12,-105 158,-164 216,-187zm-11209 76c12,-6 53,0 35,29 -6,12 -12,12 -17,12 -6,0 -29,-6 -29,-12 0,-12 0,-29 11,-29zm3383 0c23,-18 58,6 64,17 12,12 6,30 6,47 0,41 -47,93 -76,87 -35,-5 -41,-5 -53,-35 -23,-87 35,-105 59,-116zm6088 6c12,0 59,-12 53,41 0,11 -12,29 -29,23 -59,-6 -47,-29 -47,-41 0,-6 12,-18 23,-23zm385 52c76,-29 134,23 140,53 23,128 -204,215 -326,93 -12,-18 -18,-29 -12,-58 0,-30 12,-35 35,-53 47,-41 128,-23 163,-35zm2974 6c35,0 187,0 205,12 81,52 -146,163 -240,128 -29,-12 -64,-53 -58,-99 0,-18 29,-29 35,-35 12,0 29,-6 58,-6zm-13314 76c12,-6 29,0 35,17 12,12 0,47 -29,35 -6,0 -12,-6 -17,-11 -6,-12 -6,-35 11,-41zm4129 0c58,23 163,-29 163,52 0,24 -81,76 -145,53 -100,-41 -76,-129 -18,-105zm2665 29c164,-18 356,192 368,251 41,186 -420,215 -502,169 -198,-140 -233,-105 -245,-187 0,-81 216,-204 234,-210 23,0 58,-17 145,-23zm7209 0c11,0 40,12 52,23 6,12 41,134 -41,129 -17,0 -41,-24 -52,-47 -18,-41 -6,-76 23,-99 0,0 6,-6 18,-6zm-9087 76c24,6 123,-6 152,11 29,24 18,35 12,47 -6,12 -128,58 -158,53 -35,-12 -46,-35 -46,-70 0,-41 17,-47 40,-41zm-4648 17c24,-6 47,6 59,18 11,6 29,23 35,29 11,23 6,70 -35,82 -12,5 -29,5 -47,0 -17,-6 -76,-59 -52,-94 11,-17 17,-23 40,-35zm12049 41c24,0 53,12 70,35 18,23 0,76 6,111 12,47 87,64 70,152 -29,134 -268,128 -338,46 -24,-41 -12,-140 46,-163 53,-23 88,-18 111,-58 29,-35 -6,-88 -6,-94 -5,-6 0,-11 6,-17 12,-6 18,-18 35,-12zm-6398 35c12,0 71,12 117,29 47,12 58,-41 134,-17 18,6 30,11 30,23 5,18 -6,47 -36,58 -29,12 -204,24 -215,18 -18,-6 -59,-18 -64,-41 -6,-23 11,-64 34,-70zm6136 23c17,-11 93,47 93,59 6,6 12,6 0,23 -17,18 -41,41 -64,23 -29,-17 -47,-87 -29,-105zm-2595 6c17,-6 40,-6 52,12 6,12 0,52 -17,64 -24,6 -41,-6 -53,-23 -12,-24 -6,-47 18,-53zm5400 12c367,-12 443,169 653,297 111,53 222,100 327,146 262,111 536,222 775,362 88,35 193,87 257,111 70,17 163,23 198,29 35,11 41,41 47,52 6,12 12,35 12,47 -6,6 -6,23 -24,35 -122,81 -344,-140 -484,-199 -216,-93 -431,-180 -647,-274 -204,-87 -414,-192 -636,-262 -169,-52 -402,-52 -531,-146 -29,-23 -70,-122 -35,-181 18,-23 59,-11 88,-17zm-4351 64c24,0 53,6 53,23 6,18 0,30 0,41 -6,24 -23,35 -35,41 -41,6 -82,-6 -88,-17 -6,-12 -6,-12 0,-24 6,-41 47,-64 70,-64zm-7587 35c17,-6 29,-6 52,6 24,12 76,47 59,111 0,17 -12,40 -41,64 -41,46 -134,23 -158,-35 -46,-76 65,-146 88,-146zm7931 12c41,0 70,0 82,23 23,52 -58,146 -117,117 -35,-12 -52,-41 -70,-76 0,-6 6,-18 6,-23 35,-12 70,-24 99,-41zm-635 6c11,5 23,29 23,46 0,12 -6,47 -35,23 -58,-40 0,-75 12,-69zm-578 46c12,18 0,88 -52,41 -12,-6 -18,-29 0,-41 12,-17 41,-23 52,0zm3202 -17c12,-47 70,-6 93,17 24,18 18,41 -17,76 -41,35 -134,70 -152,35 -17,-47 70,-76 76,-128zm-9290 40c58,0 58,59 46,82 -5,18 -35,58 -58,70 -17,12 -47,0 -64,-17 -17,-18 -23,-135 76,-135zm-1791 59c164,29 164,356 -46,309 -105,-29 -228,-187 -94,-274 47,-12 94,-24 140,-35zm11320 23c76,-23 146,64 134,93 -17,24 -29,36 -58,53 -29,17 -82,23 -111,-12 -35,-35 -46,-105 35,-134zm-402 53c46,-12 64,-41 81,0 18,46 0,64 -17,81 -23,12 -41,94 -82,76 -46,-17 -58,-64 -58,-93 6,-29 35,-59 76,-64zm764 40c41,-11 70,12 221,41 6,6 6,12 12,18 0,11 0,23 -6,29 -46,99 -227,163 -274,23 -23,-58 35,-99 47,-111zm-618 117c-12,18 -35,47 -59,35 -23,-12 -35,-58 -11,-82 23,-23 93,12 70,47zm-6071 47c29,-12 58,-12 81,23 29,29 -6,47 0,99 6,47 146,59 -29,204 -88,59 -157,0 -227,-23 -53,-12 -129,-6 -123,-41 6,-35 76,0 105,-17 76,-41 146,-152 152,-158 29,-35 11,-81 41,-87zm472 0c128,-12 169,99 216,116 17,6 111,-5 116,12 18,29 0,23 -17,35 -18,6 -82,41 -123,70 -40,35 -227,0 -262,-23 -35,-24 -53,-99 -47,-134 12,-35 70,-76 117,-76zm1085 0c35,-6 163,0 145,99 -11,70 -110,146 -198,122 -52,-17 -70,-46 -99,-70 -99,-29 -169,76 -245,47 -35,-17 -76,-58 -58,-87 29,-65 146,-94 181,-82 29,12 40,47 64,41 17,-6 -29,-53 210,-70zm624 0c87,-53 99,111 52,151 -41,41 -93,47 -122,-11 -35,-59 11,-111 70,-140zm2531 23c262,-23 181,268 99,298 -163,52 -309,-187 -187,-275 29,-5 47,-17 88,-23zm-8340 18c23,0 41,11 53,23 69,58 -41,169 -123,157 -12,-11 -29,-5 -35,-40 -23,-94 82,-135 105,-140zm5558 5c41,-5 76,35 81,35 6,0 6,12 12,18 0,6 6,12 -12,23 -46,29 -128,35 -157,-23 0,0 -12,-6 6,-18 12,-11 35,-29 70,-35zm6205 0c41,-11 163,47 181,65 17,17 0,29 -6,35 -17,23 -76,122 -268,52 -18,-17 -35,-52 -24,-76 41,-93 70,-58 117,-76zm-5004 82c35,-6 70,18 82,35 12,12 17,12 12,35 -47,76 -216,93 -257,12 0,-6 0,-24 6,-41 23,-47 128,-29 157,-41zm455 47c18,-6 23,0 29,6 6,5 24,0 29,23 6,157 -145,82 -163,6 0,-12 12,-12 18,-18 5,0 52,6 87,-17zm1324 70c17,0 35,0 41,17 6,12 17,41 6,47 -12,6 -24,6 -30,6 -5,0 -34,-12 -40,-18 -6,-6 -6,-11 0,-29 6,-12 11,-23 23,-23zm-5365 23c23,-6 64,-17 70,35 0,18 -12,23 -18,23 -12,6 -64,0 -70,-23 -6,-12 -6,-23 18,-35zm-3978 6c12,-6 24,-18 41,6 18,17 -6,93 -64,46 -18,-17 6,-40 12,-46 5,-6 0,0 11,-6zm3809 17c46,-11 93,18 93,24 6,6 23,23 6,40 -47,59 -181,18 -234,53 -58,29 -169,35 -215,35 -53,6 -47,-29 -41,-47 29,-35 146,-11 210,-58 64,-47 157,-35 181,-47zm5738 18c41,-12 70,41 64,64 -23,47 -76,53 -81,47 -6,0 -12,-6 -24,-12 -6,-12 -11,-53 -11,-64 0,-12 5,-18 11,-18 6,-5 24,-11 41,-17zm-6217 82c12,-6 41,11 47,23 0,6 0,17 -6,29 -6,6 -23,12 -29,12 -6,6 -12,-6 -23,-12 -6,-6 0,-47 11,-52zm6678 29c12,-6 17,6 29,6 41,17 17,29 29,46 12,18 0,18 -17,24 -18,11 -47,5 -53,-12 -6,-18 0,-53 12,-64zm-4456 6c23,-35 152,58 175,93 24,41 -46,268 -216,151 -105,-75 24,-204 41,-244zm-2467 29c18,0 35,6 41,6 12,5 18,5 18,11 0,6 0,29 -6,29 -6,6 -47,24 -59,18 -17,0 -29,-18 -29,-29 0,-6 6,-6 12,-6 0,-6 6,-23 23,-29zm-116 23c5,-6 29,-12 29,6 6,12 0,29 -6,35 0,11 -29,6 -35,0 -6,-12 -6,-23 0,-35 0,-6 6,-6 12,-6zm2058 6c30,-6 70,12 82,23 12,12 29,18 23,35 -46,128 -210,70 -163,-6 12,-35 29,-40 58,-52zm-2181 12c12,0 64,17 70,23 6,11 12,29 6,35 -6,12 -64,17 -70,17 -6,0 -41,-17 -41,-23 0,-12 12,-35 18,-41 0,-6 6,-11 17,-11zm-192 5c41,-11 87,18 87,29 6,12 6,30 6,41 0,12 -116,94 -128,94 -12,0 -41,-41 -47,-47 -12,0 -12,-6 -6,-23 0,-12 47,-82 88,-94zm-338 18c87,-18 180,70 192,128 -6,163 -239,163 -303,29 -18,-70 17,-140 111,-157zm2950 6c12,-6 70,-18 70,17 0,12 -5,12 -17,24 -12,11 -82,34 -70,5 6,-11 6,-35 17,-46zm5039 35c105,-6 222,58 210,128 0,12 -70,12 -105,0 -35,-6 -169,-70 -175,-99 0,-12 6,-12 12,-18 12,-5 23,-11 58,-11zm-869 23c18,-6 59,6 64,12 0,5 -5,17 -11,23 -6,6 -70,47 -76,47 -6,0 -6,5 -12,-6 -5,-6 -17,-6 -5,-29 11,-41 29,-35 40,-47zm-175 17c18,-5 12,0 24,6 11,6 58,41 35,88 0,6 -12,11 -12,17 -6,0 -64,6 -70,0 -12,-6 -23,-29 -23,-52 0,-29 29,-53 46,-59zm1867 12c40,-17 93,18 93,47 -6,35 -88,46 -99,46 -12,-5 -35,-17 -41,-23 -6,0 -12,-12 0,-23 17,-18 6,-35 47,-47zm-2800 41c18,-6 35,-6 53,6 17,11 52,64 46,99 -11,35 -75,58 -105,52 -29,-11 -52,-35 -52,-70 6,-40 41,-75 58,-87zm-7021 29c64,-17 221,35 233,53 6,17 6,17 0,35 0,17 -257,320 -420,163 -82,-158 122,-239 187,-251zm-2106 12c12,0 29,-6 35,6 12,11 24,17 35,35 6,17 24,93 -23,128 -18,17 -47,23 -70,17 -41,-11 -64,-29 -70,-64 -17,-87 82,-116 93,-122zm1301 0c6,0 11,0 23,6 6,0 29,-18 41,46 23,152 -88,210 -134,187 -53,-23 -64,-76 -53,-134 18,-59 111,-105 123,-105zm10083 0c88,-18 181,6 181,81 0,18 0,30 -17,41 -76,29 -146,-52 -158,-64 -12,-17 -29,-52 -6,-58zm729 0c12,0 23,6 35,17 6,6 6,24 0,35 0,12 -23,24 -46,12 -6,-6 -12,-6 -18,-12 -6,-11 0,-11 0,-29 6,-12 18,-23 29,-23zm-5429 17c11,-6 17,0 23,0 12,6 47,41 47,41 0,6 0,23 0,23 0,6 0,12 -12,12 -6,0 -12,6 -29,-6 -12,-6 -41,-35 -41,-41 -6,-5 0,-11 0,-17 0,-6 6,-12 12,-12zm-7389 24c75,64 0,93 -30,87 -23,-6 -52,-23 -35,-58 18,-35 47,-53 65,-29zm13617 -6c70,-29 193,11 204,41 0,5 0,17 -5,29 -12,11 -123,58 -181,41 -30,-12 -59,-53 -59,-65 0,-17 24,-40 41,-46zm-5954 6c11,0 105,5 122,40 6,18 12,30 12,41 -6,12 -18,47 -29,53 -18,6 -64,17 -94,-6 -35,-23 -52,-82 -52,-93 6,-18 12,-24 17,-24 6,-6 12,-11 24,-11zm3312 0c6,-6 18,0 24,5 0,6 64,47 23,94 -6,11 -23,6 -29,6 -6,-6 -18,-12 -24,-24 -11,-6 -17,-46 -17,-52 0,-6 12,-24 23,-29zm-2921 11c23,-6 64,6 70,29 0,6 0,12 0,18 -6,6 -6,12 -18,17 -12,0 -99,18 -111,18 -6,0 -17,-6 -23,-18 0,-5 -12,-29 12,-35 46,-17 46,-29 70,-29zm5015 29c47,-11 93,0 123,47 5,6 5,12 5,23 -17,59 -29,35 -52,35 -18,6 -117,12 -158,-35 -6,-5 -6,-5 -6,-23 0,-17 41,-29 88,-47zm-1143 6c23,0 216,64 192,105 -81,123 -186,-58 -210,-70 -29,-6 -58,-23 -46,-35 11,-6 41,6 64,0zm-5126 12c17,0 29,6 29,23 6,24 0,18 0,41 -6,23 -59,88 -134,53 -12,-6 -12,-12 -6,-30 0,-17 99,-87 111,-87zm1131 52c17,-11 47,18 47,30 6,11 0,35 -6,35 -6,5 17,0 -12,5 -23,12 -41,-11 -52,-17 -6,-12 -6,-41 23,-53zm5418 76c52,-17 152,59 152,82 5,23 -6,29 -47,52 -41,24 -146,6 -193,-29 -5,-6 -11,-11 -11,-23 0,-6 6,-12 6,-23 5,-24 40,-41 93,-59zm-4071 18c18,0 18,-6 47,0 23,11 41,23 46,52 6,29 -5,111 -58,117 -52,12 -93,6 -105,-23 -35,-117 53,-152 70,-146zm420 70c18,0 24,0 41,6 35,23 35,58 17,87 -5,12 -29,29 -40,35 -6,0 -24,0 -35,-6 -12,-6 -35,-35 -41,-46 -6,-12 -12,-6 0,-35 6,-24 41,-35 58,-41zm2420 99c12,6 41,17 41,29 0,12 -11,41 -17,41 -41,17 -53,-29 -59,-41 0,-6 12,-17 18,-23 0,-6 6,-6 17,-6zm-12218 29c6,29 -5,47 -17,53 -70,34 -64,-41 -58,-53 5,-17 58,-47 75,0zm11040 332c18,6 29,6 35,24 12,11 18,64 12,70 0,6 0,11 -12,17 -6,0 -58,0 -64,-6 -11,-5 -29,-29 -29,-46 0,-18 29,-47 35,-53 6,-6 12,-6 23,-6zm3272 12c70,-23 99,53 99,53 0,5 6,11 0,17 -11,47 -93,76 -122,70 -12,-6 -29,-23 -41,-35 -6,-6 12,-76 23,-87 6,-6 12,-12 41,-18zm-1161 18c12,0 47,-6 53,11 6,18 -6,41 -12,47 -6,12 -17,0 -23,0 -6,6 -18,0 -23,-6 -6,-12 0,-23 0,-29 0,-12 0,-18 5,-23zm-1912 110c75,-17 70,76 58,88 -23,17 -47,6 -58,-12 -12,-11 -6,-58 -6,-58 0,0 -6,-18 6,-18zm-11075 41c6,6 41,29 23,47 -58,70 -64,-12 -58,-29 0,-18 23,-18 35,-18zm10940 356c12,-6 35,0 35,0 0,0 18,6 24,17 11,12 6,24 6,47 -12,41 -53,88 -88,64 -12,-17 -29,-64 -17,-93 11,-23 29,-35 40,-35zm438 35c29,-6 76,0 87,18 12,17 29,46 29,64 -5,17 -5,81 -64,81 -70,-6 -75,-41 -87,-64 -12,-17 -6,-29 -6,-41 6,-17 12,-46 41,-58zm58 204c12,-6 24,0 24,6 40,23 34,47 29,58 -35,47 -117,47 -94,-6 6,-11 35,-52 41,-58z"/>
  <path class="fil1" d="M873 3756l0 -3055 316 0 0 2722 1415 0 0 333c-576,0 -1156,0 -1731,0zm4056 0l-227 -564 -1370 0 -210 564 -312 0 1213 -3116 1241 3116 -335 0zm-901 -2369l-585 1538 1161 5 -576 -1543zm3017 2369l0 -3055 321 0 0 2722 1411 0 0 333 -1732 0zm4057 0l-228 -564 -1365 0 -210 564 -317 0 1214 -3116 1245 3116 -339 0zm-902 -2369l-584 1538 1165 5 -581 -1543zm2964 1450c0,0 -23,10 -72,32l625 873 -384 0 -584 -812c-228,0 -460,0 -688,0l0 826 -312 0 0 -3059c348,0 692,0 1040,0 576,17 946,472 946,1136 0,450 -201,826 -571,1004zm-375 -1826l-728 0 0 1604 683 0c433,-26 674,-410 674,-814 0,-397 -187,-732 -629,-790zm3245 2745l-228 -564 -1370 0 -210 564 -312 0 1213 -3116 1241 3116 -334 0zm-902 -2369l-585 1538 1161 5 -576 -1543zm-13920 3455c0,0 -5,3 -18,8l152 209 -94 0 -138 -195c-9,0 -18,0 -27,0 -63,0 -139,0 -139,0l0 199 -75 0 0 -735 250 0 0 2c138,3 227,112 227,272 0,107 -49,198 -138,240zm-89 -439l-175 0 0 386 166 0c102,-6 160,-98 160,-195 0,-96 -44,-177 -151,-191zm749 586l0 74 -419 0 0 -733 419 0 0 73 -339 0 0 352 290 0 0 67 -290 0 0 167 339 0zm362 -598c-103,0 -183,47 -188,120 -4,92 63,147 174,153 148,8 255,91 255,209 0,129 -130,208 -277,201 -125,-8 -223,-79 -254,-168l80 -17c18,53 94,110 174,110 89,0 197,-38 197,-129 0,-76 -81,-132 -175,-132 -4,0 -9,0 -9,-2 -133,-9 -245,-86 -245,-217 0,-119 125,-208 272,-202 103,8 188,55 228,122l-81 25c-22,-34 -98,-73 -151,-73zm567 4l0 668 -76 0 0 -668 -215 0 0 -67 514 0 0 67 -223 0zm745 668l-54 -135 -330 0 -49 135 -76 0 295 -749 294 749 -80 0zm-214 -569l-143 370 281 0 -138 -370zm607 576c-143,0 -250,-117 -250,-261l0 -481 71 0 0 502c0,90 89,169 179,169 89,0 178,-79 178,-169l0 -502 72 0 0 481c0,144 -107,261 -250,261zm714 -228c0,0 -5,3 -18,8l147 209 -89 0 -143 -195c-53,0 -112,0 -165,0l0 199 -72 0 0 -735c85,0 166,0 251,0 138,3 223,114 223,274 0,107 -45,198 -134,240zm-89 -439l-179 0 0 386 165 0c103,-6 161,-98 161,-195 0,-96 -45,-177 -147,-191zm776 660l-53 -135 -331 0 -49 135 -76 0 290 -749 299 749 -80 0zm-214 -569l-143 370 281 0 -138 -370zm509 84l-67 -83 0 564 -76 0 0 -745 415 470 89 99 0 -555 72 0 0 744 -433 -494zm798 -183l0 668 -75 0 0 -668 -215 0 0 -67 514 0 0 67 -224 0zm1027 263c-4,3 -13,4 -13,4 0,0 9,2 13,4 62,23 107,89 107,172 0,123 -80,225 -187,225l-299 0 0 -736 303 0c72,3 156,71 156,176 0,72 -40,131 -80,155zm-304 337l210 0c58,0 125,-78 125,-147 0,-70 -35,-150 -147,-150 0,0 -121,0 -188,0l0 297zm197 -604l-197 0 0 239c59,0 188,0 188,0 71,0 116,-72 116,-124 0,-48 -31,-115 -107,-115zm772 672l-54 -135 -330 0 -49 135 -76 0 290 -749 299 749 -80 0zm-219 -569l-138 370 281 0 -143 -370zm714 348c0,0 -4,3 -18,8l152 209 -93 0 -139 -195c-9,0 -18,0 -27,0 -62,0 -142,0 -142,0l0 199 -72 0 0 -735 250 0 0 2c138,3 228,112 228,272 0,107 -49,198 -139,240zm-89 -439l-178 0 0 386 165 0c107,-6 165,-98 165,-195 0,-96 -45,-177 -152,-191zm946 663c-62,0 -129,-32 -165,-66 -18,-14 -22,-20 -31,-27l0 90 -76 0 0 -735 71 0 0 299c5,-13 27,-28 41,-38 44,-36 98,-50 160,-50 143,0 264,117 264,264 0,146 -121,263 -264,263zm0 -463c-107,0 -205,91 -205,195 0,108 98,202 205,202 107,0 197,-89 197,-197 0,-106 -90,-200 -197,-200zm509 607c-27,0 -53,0 -80,0 27,-60 49,-121 76,-180 -63,-164 -121,-328 -183,-493 26,0 49,0 75,0 50,138 103,277 152,415 63,-138 125,-277 188,-415 22,0 49,0 71,0 -98,224 -201,449 -299,673zm902 -526l290 379 -94 0 -246 -336 -35 37 0 299 -76 0 0 -733 71 0 0 342 290 -342 103 0 -303 354zm732 391c-206,0 -371,-170 -371,-381 0,-208 165,-377 371,-377 200,0 366,169 366,377 0,211 -166,381 -366,381zm0 -686c-161,0 -295,139 -295,305 0,170 134,305 295,305 160,0 290,-135 290,-305 0,-166 -130,-305 -290,-305zm964 674l-541 0 411 -666 -384 0 0 -69 514 0 -407 663 407 -2 0 74zm535 0l0 -241 -352 0 0 241 -76 0 0 -735 76 0 0 427 352 0 0 -425 76 0 0 733 -76 0zm549 12c-201,0 -366,-170 -366,-381 0,-208 165,-377 366,-377 205,0 370,169 370,377 0,211 -165,381 -370,381zm0 -686c-156,0 -290,139 -290,305 0,170 134,305 290,305 161,0 295,-135 295,-305 0,-166 -134,-305 -295,-305zm634 295l290 379 -94 0 -245 -336 -36 37 0 299 -76 0 0 -733 72 0 0 342 290 -342 98 0 -299 354zm843 379l-53 -135 -326 0 -54 135 -75 0 294 -749 299 749 -85 0zm-214 -569l-143 370 281 0 -138 -370zm710 348c0,0 -5,3 -18,8l152 209 -94 0 -139 -195c-53,0 -111,0 -165,0l0 199 -76 0 0 -735 250 0 0 2c139,3 228,112 228,272 0,107 -49,198 -138,240zm-90 -439l-174 0 0 386 165 0c103,-6 161,-98 161,-195 0,-96 -44,-177 -152,-191zm572 667c-148,0 -250,-117 -250,-261l0 -481 71 0 0 502c0,90 90,169 179,169 85,0 174,-79 174,-169l0 -502 71 0 0 481c0,144 -102,261 -245,261z"/>
 </g>
</svg>
